<svg width="158" height="33" viewBox="0 0 158 33" fill="none" xmlns="http://www.w3.org/2000/svg">
<path d="M23.3333 17C22.8029 17 22.2942 16.7893 21.9191 16.4142C21.544 16.0391 21.3333 15.5304 21.3333 15C21.3333 14.4696 21.544 13.9609 21.9191 13.5858C22.2942 13.2107 22.8029 13 23.3333 13C23.8638 13 24.3725 13.2107 24.7475 13.5858C25.1226 13.9609 25.3333 14.4696 25.3333 15C25.3333 15.5304 25.1226 16.0391 24.7475 16.4142C24.3725 16.7893 23.8638 17 23.3333 17ZM19.3333 11.6667C18.8029 11.6667 18.2942 11.456 17.9191 11.0809C17.544 10.7058 17.3333 10.1971 17.3333 9.66667C17.3333 9.13623 17.544 8.62753 17.9191 8.25245C18.2942 7.87738 18.8029 7.66667 19.3333 7.66667C19.8638 7.66667 20.3725 7.87738 20.7475 8.25245C21.1226 8.62753 21.3333 9.13623 21.3333 9.66667C21.3333 10.1971 21.1226 10.7058 20.7475 11.0809C20.3725 11.456 19.8638 11.6667 19.3333 11.6667ZM12.6667 11.6667C12.1362 11.6667 11.6275 11.456 11.2525 11.0809C10.8774 10.7058 10.6667 10.1971 10.6667 9.66667C10.6667 9.13623 10.8774 8.62753 11.2525 8.25245C11.6275 7.87738 12.1362 7.66667 12.6667 7.66667C13.1971 7.66667 13.7058 7.87738 14.0809 8.25245C14.456 8.62753 14.6667 9.13623 14.6667 9.66667C14.6667 10.1971 14.456 10.7058 14.0809 11.0809C13.7058 11.456 13.1971 11.6667 12.6667 11.6667ZM8.66667 17C8.13623 17 7.62753 16.7893 7.25245 16.4142C6.87738 16.0391 6.66667 15.5304 6.66667 15C6.66667 14.4696 6.87738 13.9609 7.25245 13.5858C7.62753 13.2107 8.13623 13 8.66667 13C9.1971 13 9.70581 13.2107 10.0809 13.5858C10.456 13.9609 10.6667 14.4696 10.6667 15C10.6667 15.5304 10.456 16.0391 10.0809 16.4142C9.70581 16.7893 9.1971 17 8.66667 17ZM16 5C12.8174 5 9.76516 6.26428 7.51472 8.51472C5.26428 10.7652 4 13.8174 4 17C4 20.1826 5.26428 23.2348 7.51472 25.4853C9.76516 27.7357 12.8174 29 16 29C16.5304 29 17.0391 28.7893 17.4142 28.4142C17.7893 28.0391 18 27.5304 18 27C18 26.48 17.8 26.0133 17.48 25.6667C17.1733 25.3067 16.9733 24.84 16.9733 24.3333C16.9733 23.8029 17.184 23.2942 17.5591 22.9191C17.9342 22.544 18.4429 22.3333 18.9733 22.3333H21.3333C23.1014 22.3333 24.7971 21.631 26.0474 20.3807C27.2976 19.1305 28 17.4348 28 15.6667C28 9.77333 22.6267 5 16 5Z" fill="url(#paint0_linear_1_32)"/>
<path d="M40.864 24.216C39.664 24.216 38.624 23.968 37.744 23.472C36.88 22.96 36.208 22.248 35.728 21.336C35.248 20.408 35.008 19.32 35.008 18.072C35.008 17.144 35.144 16.312 35.416 15.576C35.688 14.824 36.072 14.192 36.568 13.68C37.08 13.168 37.696 12.776 38.416 12.504C39.152 12.216 39.968 12.072 40.864 12.072C41.424 12.072 42.008 12.16 42.616 12.336C43.24 12.496 43.816 12.768 44.344 13.152C44.552 13.28 44.68 13.44 44.728 13.632C44.792 13.808 44.8 13.992 44.752 14.184C44.72 14.376 44.632 14.544 44.488 14.688C44.36 14.816 44.2 14.896 44.008 14.928C43.816 14.944 43.608 14.888 43.384 14.76C43 14.488 42.608 14.296 42.208 14.184C41.808 14.056 41.424 13.992 41.056 13.992C40.48 13.992 39.968 14.088 39.52 14.28C39.088 14.456 38.72 14.72 38.416 15.072C38.112 15.408 37.88 15.832 37.72 16.344C37.576 16.856 37.504 17.44 37.504 18.096C37.504 19.408 37.808 20.44 38.416 21.192C39.04 21.928 39.92 22.296 41.056 22.296C41.424 22.296 41.808 22.24 42.208 22.128C42.608 22.016 43 21.824 43.384 21.552C43.608 21.424 43.816 21.376 44.008 21.408C44.2 21.44 44.352 21.528 44.464 21.672C44.592 21.8 44.672 21.96 44.704 22.152C44.752 22.328 44.744 22.512 44.68 22.704C44.616 22.896 44.48 23.056 44.272 23.184C43.76 23.552 43.2 23.816 42.592 23.976C42 24.136 41.424 24.216 40.864 24.216ZM51.7608 24.216C50.5768 24.216 49.5528 23.968 48.6888 23.472C47.8408 22.976 47.1768 22.272 46.6968 21.36C46.2168 20.448 45.9768 19.376 45.9768 18.144C45.9768 17.2 46.1128 16.36 46.3848 15.624C46.6568 14.888 47.0408 14.256 47.5368 13.728C48.0488 13.184 48.6568 12.776 49.3608 12.504C50.0808 12.216 50.8808 12.072 51.7608 12.072C52.9288 12.072 53.9368 12.32 54.7848 12.816C55.6488 13.312 56.3208 14.016 56.8008 14.928C57.2808 15.824 57.5208 16.896 57.5208 18.144C57.5208 19.072 57.3848 19.912 57.1128 20.664C56.8408 21.416 56.4488 22.056 55.9368 22.584C55.4408 23.112 54.8328 23.52 54.1128 23.808C53.4088 24.08 52.6248 24.216 51.7608 24.216ZM51.7608 22.344C52.4168 22.344 52.9928 22.184 53.4888 21.864C53.9848 21.544 54.3688 21.072 54.6408 20.448C54.9288 19.824 55.0728 19.056 55.0728 18.144C55.0728 16.768 54.7688 15.728 54.1608 15.024C53.5528 14.32 52.7528 13.968 51.7608 13.968C51.0888 13.968 50.5048 14.128 50.0088 14.448C49.5128 14.752 49.1208 15.216 48.8328 15.84C48.5608 16.464 48.4248 17.232 48.4248 18.144C48.4248 19.504 48.7288 20.544 49.3368 21.264C49.9448 21.984 50.7528 22.344 51.7608 22.344ZM64.5681 24.168C64.2321 24.168 63.9361 24.08 63.6801 23.904C63.4401 23.728 63.2401 23.456 63.0801 23.088L59.0721 13.776C58.9441 13.488 58.8961 13.216 58.9281 12.96C58.9601 12.704 59.0801 12.504 59.2881 12.36C59.4961 12.2 59.7761 12.12 60.1281 12.12C60.4321 12.12 60.6721 12.192 60.8481 12.336C61.0241 12.48 61.1841 12.728 61.3281 13.08L64.9521 22.008H64.2801L67.9761 13.08C68.1201 12.728 68.2801 12.48 68.4561 12.336C68.6481 12.192 68.9121 12.12 69.2481 12.12C69.5361 12.12 69.7601 12.2 69.9201 12.36C70.0961 12.504 70.2001 12.704 70.2321 12.96C70.2801 13.2 70.2401 13.464 70.1121 13.752L66.0561 23.088C65.9121 23.456 65.7121 23.728 65.4561 23.904C65.2001 24.08 64.9041 24.168 64.5681 24.168ZM77.7859 24.216C76.5059 24.216 75.4019 23.976 74.4739 23.496C73.5619 23 72.8499 22.304 72.3379 21.408C71.8419 20.496 71.5939 19.416 71.5939 18.168C71.5939 16.952 71.8419 15.888 72.3379 14.976C72.8339 14.064 73.5139 13.352 74.3779 12.84C75.2419 12.328 76.2259 12.072 77.3299 12.072C78.1459 12.072 78.8739 12.208 79.5139 12.48C80.1539 12.736 80.6979 13.12 81.1459 13.632C81.6099 14.128 81.9539 14.736 82.1779 15.456C82.4179 16.176 82.5379 16.984 82.5379 17.88C82.5379 18.152 82.4579 18.36 82.2979 18.504C82.1379 18.632 81.8979 18.696 81.5779 18.696H73.5139V17.208H80.9059L80.4979 17.544C80.4979 16.744 80.3779 16.064 80.1379 15.504C79.9139 14.944 79.5699 14.52 79.1059 14.232C78.6579 13.928 78.0979 13.776 77.4259 13.776C76.6739 13.776 76.0339 13.952 75.5059 14.304C74.9939 14.656 74.6019 15.144 74.3299 15.768C74.0579 16.392 73.9219 17.12 73.9219 17.952V18.096C73.9219 19.504 74.2499 20.568 74.9059 21.288C75.5779 21.992 76.5459 22.344 77.8099 22.344C78.2899 22.344 78.7939 22.28 79.3219 22.152C79.8659 22.024 80.3779 21.808 80.8579 21.504C81.1299 21.344 81.3699 21.272 81.5779 21.288C81.8019 21.304 81.9779 21.376 82.1059 21.504C82.2499 21.632 82.3379 21.792 82.3699 21.984C82.4019 22.176 82.3699 22.376 82.2739 22.584C82.1779 22.776 82.0099 22.952 81.7699 23.112C81.2259 23.48 80.5939 23.76 79.8739 23.952C79.1539 24.128 78.4579 24.216 77.7859 24.216ZM86.4046 24.168C86.0046 24.168 85.7006 24.064 85.4926 23.856C85.2846 23.632 85.1806 23.328 85.1806 22.944V13.344C85.1806 12.944 85.2846 12.64 85.4926 12.432C85.7006 12.224 85.9886 12.12 86.3566 12.12C86.7406 12.12 87.0286 12.224 87.2206 12.432C87.4286 12.64 87.5326 12.944 87.5326 13.344V15.096H87.2926C87.5486 14.136 88.0206 13.408 88.7086 12.912C89.3966 12.416 90.2766 12.128 91.3486 12.048C91.6366 12.032 91.8606 12.104 92.0206 12.264C92.1966 12.424 92.2926 12.672 92.3086 13.008C92.3406 13.344 92.2686 13.616 92.0926 13.824C91.9166 14.016 91.6446 14.128 91.2766 14.16L90.8206 14.208C89.7806 14.304 88.9886 14.632 88.4446 15.192C87.9006 15.752 87.6286 16.52 87.6286 17.496V22.944C87.6286 23.328 87.5246 23.632 87.3166 23.856C87.1246 24.064 86.8206 24.168 86.4046 24.168ZM99.2736 28.536C98.4096 28.536 97.5696 28.448 96.7536 28.272C95.9536 28.096 95.2256 27.808 94.5696 27.408C94.3296 27.28 94.1696 27.12 94.0896 26.928C94.0096 26.752 93.9856 26.568 94.0176 26.376C94.0656 26.184 94.1536 26.016 94.2816 25.872C94.4096 25.728 94.5616 25.632 94.7376 25.584C94.9296 25.536 95.1296 25.568 95.3376 25.68C96.0416 26.064 96.7056 26.32 97.3296 26.448C97.9696 26.592 98.5616 26.664 99.1056 26.664C100.226 26.664 101.066 26.376 101.626 25.8C102.186 25.24 102.466 24.408 102.466 23.304V20.856H102.682C102.442 21.736 101.938 22.432 101.17 22.944C100.402 23.456 99.5136 23.712 98.5056 23.712C97.4496 23.712 96.5296 23.472 95.7456 22.992C94.9616 22.496 94.3536 21.816 93.9216 20.952C93.4896 20.072 93.2736 19.048 93.2736 17.88C93.2736 17 93.3936 16.208 93.6336 15.504C93.8896 14.8 94.2416 14.192 94.6896 13.68C95.1536 13.168 95.7056 12.776 96.3456 12.504C97.0016 12.216 97.7216 12.072 98.5056 12.072C99.5296 12.072 100.418 12.328 101.17 12.84C101.938 13.352 102.434 14.048 102.658 14.928L102.418 15.336V13.344C102.418 12.944 102.522 12.64 102.73 12.432C102.954 12.224 103.25 12.12 103.618 12.12C104.002 12.12 104.298 12.224 104.506 12.432C104.714 12.64 104.818 12.944 104.818 13.344V23.016C104.818 24.84 104.346 26.216 103.402 27.144C102.458 28.072 101.082 28.536 99.2736 28.536ZM99.0816 21.816C99.7856 21.816 100.386 21.656 100.882 21.336C101.378 21.016 101.762 20.56 102.034 19.968C102.306 19.376 102.442 18.68 102.442 17.88C102.442 16.68 102.138 15.728 101.53 15.024C100.938 14.32 100.122 13.968 99.0816 13.968C98.3936 13.968 97.8016 14.128 97.3056 14.448C96.8096 14.768 96.4176 15.224 96.1296 15.816C95.8576 16.392 95.7216 17.08 95.7216 17.88C95.7216 19.096 96.0256 20.056 96.6336 20.76C97.2416 21.464 98.0576 21.816 99.0816 21.816ZM113.716 24.216C112.436 24.216 111.332 23.976 110.404 23.496C109.492 23 108.78 22.304 108.268 21.408C107.772 20.496 107.524 19.416 107.524 18.168C107.524 16.952 107.772 15.888 108.268 14.976C108.764 14.064 109.444 13.352 110.308 12.84C111.172 12.328 112.156 12.072 113.26 12.072C114.076 12.072 114.804 12.208 115.444 12.48C116.084 12.736 116.628 13.12 117.076 13.632C117.54 14.128 117.884 14.736 118.108 15.456C118.348 16.176 118.468 16.984 118.468 17.88C118.468 18.152 118.388 18.36 118.228 18.504C118.068 18.632 117.828 18.696 117.508 18.696H109.444V17.208H116.836L116.428 17.544C116.428 16.744 116.308 16.064 116.068 15.504C115.844 14.944 115.5 14.52 115.036 14.232C114.588 13.928 114.028 13.776 113.356 13.776C112.604 13.776 111.964 13.952 111.436 14.304C110.924 14.656 110.532 15.144 110.26 15.768C109.988 16.392 109.852 17.12 109.852 17.952V18.096C109.852 19.504 110.18 20.568 110.836 21.288C111.508 21.992 112.476 22.344 113.74 22.344C114.22 22.344 114.724 22.28 115.252 22.152C115.796 22.024 116.308 21.808 116.788 21.504C117.06 21.344 117.3 21.272 117.508 21.288C117.732 21.304 117.908 21.376 118.036 21.504C118.18 21.632 118.268 21.792 118.3 21.984C118.332 22.176 118.3 22.376 118.204 22.584C118.108 22.776 117.94 22.952 117.7 23.112C117.156 23.48 116.524 23.76 115.804 23.952C115.084 24.128 114.388 24.216 113.716 24.216ZM122.31 24.168C121.926 24.168 121.63 24.064 121.422 23.856C121.214 23.632 121.11 23.328 121.11 22.944V13.344C121.11 12.944 121.214 12.64 121.422 12.432C121.63 12.224 121.918 12.12 122.286 12.12C122.67 12.12 122.958 12.224 123.15 12.432C123.358 12.64 123.462 12.944 123.462 13.344V15.216L123.198 14.784C123.55 13.888 124.102 13.216 124.854 12.768C125.606 12.304 126.47 12.072 127.446 12.072C128.374 12.072 129.142 12.248 129.75 12.6C130.374 12.936 130.838 13.456 131.142 14.16C131.446 14.848 131.598 15.72 131.598 16.776V22.944C131.598 23.328 131.494 23.632 131.286 23.856C131.078 24.064 130.782 24.168 130.398 24.168C129.998 24.168 129.694 24.064 129.486 23.856C129.278 23.632 129.174 23.328 129.174 22.944V16.92C129.174 15.912 128.974 15.176 128.574 14.712C128.19 14.248 127.582 14.016 126.75 14.016C125.774 14.016 124.99 14.32 124.398 14.928C123.822 15.536 123.534 16.352 123.534 17.376V22.944C123.534 23.76 123.126 24.168 122.31 24.168ZM136.114 24.096C135.65 24.096 135.274 23.952 134.986 23.664C134.698 23.376 134.554 23.008 134.554 22.56C134.554 22.112 134.698 21.752 134.986 21.48C135.274 21.192 135.65 21.048 136.114 21.048C136.578 21.048 136.946 21.192 137.218 21.48C137.49 21.752 137.626 22.112 137.626 22.56C137.626 23.008 137.49 23.376 137.218 23.664C136.946 23.952 136.578 24.096 136.114 24.096ZM144.284 24.216C143.468 24.216 142.732 24.056 142.076 23.736C141.436 23.416 140.932 22.984 140.564 22.44C140.196 21.896 140.012 21.28 140.012 20.592C140.012 19.728 140.228 19.048 140.66 18.552C141.108 18.04 141.836 17.68 142.844 17.472C143.868 17.248 145.244 17.136 146.972 17.136H148.1V18.624H146.996C145.844 18.624 144.932 18.68 144.26 18.792C143.588 18.904 143.108 19.096 142.82 19.368C142.548 19.624 142.412 19.984 142.412 20.448C142.412 21.056 142.62 21.552 143.036 21.936C143.452 22.304 144.028 22.488 144.764 22.488C145.356 22.488 145.876 22.352 146.324 22.08C146.772 21.792 147.124 21.408 147.38 20.928C147.652 20.448 147.788 19.896 147.788 19.272V16.512C147.788 15.6 147.596 14.944 147.212 14.544C146.828 14.144 146.196 13.944 145.316 13.944C144.804 13.944 144.268 14.008 143.708 14.136C143.164 14.264 142.596 14.48 142.004 14.784C141.732 14.912 141.5 14.952 141.308 14.904C141.116 14.856 140.964 14.752 140.852 14.592C140.74 14.416 140.676 14.232 140.66 14.04C140.66 13.832 140.708 13.632 140.804 13.44C140.916 13.248 141.1 13.104 141.356 13.008C142.06 12.672 142.756 12.432 143.444 12.288C144.132 12.144 144.78 12.072 145.388 12.072C146.46 12.072 147.34 12.24 148.028 12.576C148.732 12.912 149.252 13.424 149.588 14.112C149.924 14.8 150.092 15.688 150.092 16.776V22.944C150.092 23.328 149.996 23.632 149.804 23.856C149.612 24.064 149.332 24.168 148.964 24.168C148.612 24.168 148.332 24.064 148.124 23.856C147.916 23.632 147.812 23.328 147.812 22.944V21.384H148.028C147.9 21.976 147.66 22.488 147.308 22.92C146.972 23.336 146.548 23.656 146.036 23.88C145.524 24.104 144.94 24.216 144.284 24.216ZM154.631 24.144C154.247 24.144 153.951 24.032 153.743 23.808C153.535 23.568 153.431 23.24 153.431 22.824V13.464C153.431 13.048 153.535 12.728 153.743 12.504C153.951 12.28 154.247 12.168 154.631 12.168C155.015 12.168 155.311 12.28 155.519 12.504C155.743 12.728 155.855 13.048 155.855 13.464V22.824C155.855 23.24 155.751 23.568 155.543 23.808C155.335 24.032 155.031 24.144 154.631 24.144ZM154.631 9.672C154.151 9.672 153.775 9.552 153.503 9.312C153.247 9.072 153.119 8.736 153.119 8.304C153.119 7.856 153.247 7.52 153.503 7.296C153.775 7.056 154.151 6.936 154.631 6.936C155.111 6.936 155.479 7.056 155.735 7.296C156.007 7.52 156.143 7.856 156.143 8.304C156.143 8.736 156.007 9.072 155.735 9.312C155.479 9.552 155.111 9.672 154.631 9.672Z" fill="#F2F2F2"/>
<defs>
<linearGradient id="paint0_linear_1_32" x1="28" y1="5.77143" x2="3.22857" y2="29" gradientUnits="userSpaceOnUse">
<stop stop-color="#AAFFF5"/>
<stop offset="1" stop-color="#8B63FF"/>
</linearGradient>
</defs>
</svg>
